<?xml version="1.0" standalone="no"?>
<!DOCTYPE svg PUBLIC "-//W3C//DTD SVG 20010904//EN"
 "http://www.w3.org/TR/2001/REC-SVG-20010904/DTD/svg10.dtd">
<svg version="1.0" xmlns="http://www.w3.org/2000/svg"
 width="36.000000pt" height="36.000000pt" viewBox="0 0 36.000000 36.000000"
 preserveAspectRatio="xMidYMid meet">
<metadata>
Created by potrace 1.15, written by Peter Selinger 2001-2017
</metadata>
<g transform="translate(0.000000,36.000000) scale(0.100000,-0.100000)"
fill="#000000" stroke="none">
<path d="M100 338 c-132 -67 -132 -249 0 -316 56 -28 104 -28 160 0 132 67
132 249 0 316 -24 12 -60 22 -80 22 -20 0 -56 -10 -80 -22z m175 -111 c4 -13
5 -43 3 -68 l-3 -44 -95 0 -95 0 -3 44 c-6 88 -4 91 98 91 86 0 90 -1 95 -23z"/>
</g>
</svg>
